PathFileType	4	(X/Y/Z)	s01c0403.trc
DataRate	CameraRate	NumFrames	NumMarkers	Units	OrigDataRate	OrigDataStartFrame	OrigNumFrames
200	200	6	47	mm	200	1500	2000
Frame#	Time	racr			lacr			c7			jug			rlel			rdr			llel			ldr			lic			ric			lasi			rasi			rpsi			lpsi			rgt			lgt			rth1			rth2			rth3			rth4			rlfc			rsh1			rsh2			rsh3			rsh4			rlmal			rmmal			rcal			rtoe			rmt5			lth1			lth2			lth4			lth3			llfc			lsh1			lsh2			lsh3			lsh4			llmal			lmmal			lcal			ltoe			lmt5			SBIKE			LBIKE			RBIKE			
		X1	Y1	Z1	X2	Y2	Z2	X3	Y3	Z3	X4	Y4	Z4	X5	Y5	Z5	X6	Y6	Z6	X7	Y7	Z7	X8	Y8	Z8	X9	Y9	Z9	X10	Y10	Z10	X11	Y11	Z11	X12	Y12	Z12	X13	Y13	Z13	X14	Y14	Z14	X15	Y15	Z15	X16	Y16	Z16	X17	Y17	Z17	X18	Y18	Z18	X19	Y19	Z19	X20	Y20	Z20	X21	Y21	Z21	X22	Y22	Z22	X23	Y23	Z23	X24	Y24	Z24	X25	Y25	Z25	X26	Y26	Z26	X27	Y27	Z27	X28	Y28	Z28	X29	Y29	Z29	X30	Y30	Z30	X31	Y31	Z31	X32	Y32	Z32	X33	Y33	Z33	X34	Y34	Z34	X35	Y35	Z35	X36	Y36	Z36	X37	Y37	Z37	X38	Y38	Z38	X39	Y39	Z39	X40	Y40	Z40	X41	Y41	Z41	X42	Y42	Z42	X43	Y43	Z43	X44	Y44	Z44	X45	Y45	Z45	X46	Y46	Z46	X47	Y47	Z47	
1500	7.5000	744.612610	1325.250000	-91.251907	733.458923	1297.023804	-472.022705	731.392029	1417.493164	-282.247559	720.367798	1252.996338	-274.797699	594.946716	1096.440918	40.990147	712.883179	895.891907	-31.457216	558.385498	1067.971802	-567.653748	692.961853	897.182983	-456.916229	347.003387	1223.034668	-419.434235	373.868073	1185.973755	-95.140106	378.837555	1176.823364	-423.843719	387.179260	1137.319092	-121.828064	234.880646	1241.411011	-175.818619	219.928070	1253.641602	-278.958557	290.873108	1070.442261	-67.539589	301.938080	1104.724365	-445.614777	318.856445	953.802612	-52.706036	342.037720	873.544922	-55.503250	360.525146	785.901733	-64.727425	395.490570	886.264648	-67.779388	351.183044	668.612549	-84.451263	283.798737	574.087646	-51.682491	251.453690	495.861267	-54.871616	210.571350	417.140381	-65.161865	298.959381	474.864380	-86.029831	155.945114	312.654694	-87.729149	202.003769	309.704315	-159.080948	116.432014	329.423737	-140.957993	273.652466	108.370789	-138.658752	184.036758	165.114456	-65.842628	387.553497	1019.202087	-455.884399	471.458588	991.141846	-461.381592	491.355438	1042.066284	-449.278900	547.416016	955.969360	-452.950867	654.811707	867.015869	-419.504150	535.225098	834.647827	-460.486481	470.235931	777.779907	-453.313721	404.378052	723.138977	-437.847809	509.443359	736.856018	-429.372711	301.039215	632.003967	-417.763702	327.904663	625.053162	-337.232361	236.939651	633.450439	-375.631836	433.746552	437.819916	-368.933289	344.277802	489.463104	-441.361115	-225.360825	892.904053	-254.257965	-13.293616	84.959839	-457.937408	-23.104115	81.061981	-57.874535	
1501	7.5050	744.564758	1324.635376	-94.164528	733.396729	1294.535156	-472.971680	731.544678	1416.625244	-283.679077	719.926147	1252.229858	-275.377319	594.841064	1096.619873	39.967606	712.859497	895.964233	-31.490471	556.563171	1066.867310	-568.806824	692.700500	897.430420	-456.640320	346.504120	1225.194458	-420.177673	373.217743	1188.891968	-95.281151	378.515167	1179.077026	-424.707520	386.896820	1139.804810	-122.018234	234.479492	1243.545410	-176.587875	219.818054	1255.645020	-279.790009	290.902313	1072.898071	-67.862991	301.366364	1106.831543	-445.505096	320.347076	955.528381	-53.318859	344.298340	875.529114	-56.536217	363.718628	788.169739	-65.758987	397.603516	888.919922	-68.439323	354.200714	671.218323	-85.184357	285.358215	577.799316	-52.403084	251.880707	500.044464	-55.507290	209.789520	421.890442	-65.706146	299.077484	478.187012	-86.555901	153.777634	318.381958	-87.557716	200.353622	314.731201	-159.210403	114.762177	336.565247	-141.635300	263.465820	109.539589	-138.789154	176.366745	170.083771	-66.293587	386.281769	1019.833618	-455.006531	469.897064	991.002014	-460.150543	489.498779	1042.369141	-450.356323	545.751831	955.751160	-452.517548	655.798828	867.500793	-417.194489	535.823608	833.269653	-459.038910	471.596283	775.076660	-453.199158	406.719971	719.608704	-438.127045	511.254028	734.798401	-428.825562	303.471344	625.805664	-418.237061	330.142365	620.150879	-337.535645	238.680573	625.066406	-376.509613	443.396301	437.461182	-369.117157	351.899963	484.935516	-441.815704	-225.334167	892.963562	-254.509842	-13.300311	84.918037	-458.004303	-23.106012	81.131599	-57.896374	
1502	7.5100	744.543457	1324.387207	-95.392303	733.288879	1291.937622	-473.856323	731.627441	1415.822510	-284.929199	719.385559	1251.223999	-275.770355	594.598877	1096.780640	39.081192	712.828674	896.055786	-31.510098	554.626282	1065.693237	-569.893860	692.053894	897.751648	-456.644531	346.149323	1227.507568	-421.066193	372.450684	1191.776978	-95.212708	378.288696	1181.075928	-425.180084	386.572388	1142.203369	-122.104401	234.080597	1245.671631	-177.462372	219.779449	1257.520630	-280.712158	290.917023	1075.361328	-68.127975	300.627380	1108.967651	-445.288910	321.963318	957.072266	-54.026844	346.929810	877.454773	-57.679127	367.553833	790.403687	-66.880875	400.429199	891.671265	-68.469849	358.150574	673.877625	-86.058266	287.676910	581.362183	-53.306164	252.957489	504.220367	-56.389671	209.540771	426.737335	-66.637009	299.746948	481.506897	-87.682449	151.494873	324.411377	-87.720085	198.216888	319.818726	-159.759369	112.849617	343.678131	-142.555664	253.387894	111.376320	-139.036316	168.975708	175.497406	-66.893402	384.826569	1020.033081	-454.017273	468.150330	990.294373	-458.877991	488.161194	1041.848511	-450.101410	544.252563	954.700623	-451.556488	656.048828	867.296448	-415.600067	535.697205	830.329773	-457.282715	472.147278	771.001038	-452.749359	407.967590	714.791809	-438.221680	512.096802	731.274719	-428.086609	305.461273	618.596985	-418.921570	331.711365	614.288757	-337.610382	240.071732	615.858643	-377.587463	452.564819	436.884003	-369.435272	358.798157	479.676727	-442.090057	-225.333664	892.997375	-254.776886	-13.281902	84.970703	-457.988007	-23.079006	81.203148	-57.915581	
1503	7.5150	744.504639	1324.023682	-96.551819	733.338989	1289.228516	-474.597534	731.485352	1415.038818	-285.942261	718.659851	1250.182861	-276.087738	594.576416	1097.037476	38.581524	712.756409	896.108459	-31.495317	552.806030	1064.432129	-571.083984	691.388306	898.063477	-456.662170	345.865204	1229.920166	-421.773438	371.406921	1194.874146	-95.017746	378.305267	1183.046997	-425.964386	386.169067	1144.517456	-122.143921	233.751648	1247.780151	-178.358719	219.804535	1259.421509	-281.688690	290.879333	1077.714111	-68.303825	300.022064	1111.016235	-445.122375	323.792175	958.543823	-54.811630	349.964722	879.266174	-58.827892	371.830872	792.601868	-68.189117	403.677460	894.360168	-68.883301	362.764313	676.447327	-87.251640	290.741455	584.908569	-54.322140	254.594681	508.373291	-57.494137	209.687271	431.709503	-67.644196	300.792786	484.996277	-89.065186	149.081238	330.801453	-88.200356	195.577942	325.058929	-160.645920	110.708122	351.012268	-143.327759	243.537338	114.147026	-139.084183	161.519363	181.610107	-67.480827	383.118835	1019.759094	-453.170135	466.248199	989.015198	-457.591980	487.028503	1040.364990	-449.227661	542.733582	952.870667	-450.074188	655.626526	866.530457	-414.717712	534.702759	826.059387	-455.516357	471.854309	765.606323	-452.107178	408.372528	708.427124	-438.263153	512.095764	726.298279	-427.076630	307.140594	610.639465	-419.470734	332.991119	607.352905	-337.645355	241.405090	605.513855	-378.585785	461.658661	435.546600	-370.135010	365.600647	473.476624	-442.535126	-225.309830	893.017029	-255.053986	-13.265982	84.953102	-458.056091	-23.088219	81.286819	-57.970921	
1504	7.5200	744.374756	1323.372559	-97.700798	733.490540	1286.460327	-475.161224	731.243164	1414.347656	-286.632965	717.854980	1248.950928	-276.321716	594.142456	1097.247314	38.138443	712.654785	896.110474	-31.428022	551.088745	1063.206665	-572.274048	690.670715	898.370728	-456.777588	345.692780	1232.168457	-422.594696	370.273865	1197.772339	-94.801208	378.477753	1184.626831	-426.420685	385.741943	1146.754395	-122.185341	233.483521	1249.809204	-179.364883	219.834137	1261.106812	-282.704926	290.800262	1079.985229	-68.443367	299.497009	1112.747681	-444.959045	325.752350	959.860474	-55.737926	353.241333	881.070312	-60.095360	376.561615	794.716553	-70.073364	406.611908	896.854126	-69.833496	368.125214	678.961548	-88.547234	294.309967	588.313416	-55.417339	256.639496	512.517944	-58.684536	210.145477	436.816467	-68.771935	302.054138	488.393494	-90.790535	146.336700	337.613556	-88.904572	192.636887	330.646698	-161.719406	108.481117	358.901428	-144.581497	234.046021	117.875298	-139.064209	154.324509	188.179443	-68.068275	381.353943	1019.044006	-452.171326	464.204590	987.219543	-456.346954	485.541046	1038.176025	-448.904266	540.662720	950.079163	-448.560455	654.694946	865.086060	-414.253174	532.845215	820.629517	-453.945770	471.001068	759.174561	-451.404602	408.372620	700.875061	-438.123596	511.637421	720.360168	-425.979919	308.713593	601.484192	-419.909729	334.156403	599.382690	-337.570374	243.118271	593.253967	-379.258972	469.777344	433.358856	-370.379730	372.508179	467.102295	-442.816345	-225.271759	893.017761	-255.325363	-13.262028	84.924927	-458.091705	-23.065252	81.327644	-58.020046	
1505	7.5250	744.336670	1322.370239	-98.469200	733.688965	1283.769897	-475.633484	731.118469	1413.673828	-287.263550	717.054932	1247.856567	-276.534027	593.524475	1097.383789	37.898987	712.501160	896.086731	-31.322590	549.448364	1061.905518	-573.372498	689.911865	898.539673	-456.948975	345.486847	1234.190308	-423.581604	369.069305	1200.630981	-94.650269	378.671173	1185.714600	-426.562592	384.775116	1148.210938	-123.461754	233.250153	1251.704590	-180.343872	220.024063	1262.666260	-283.786957	290.655731	1082.138184	-68.548668	299.215881	1114.142456	-444.831970	327.901917	961.009277	-56.651291	356.662476	882.775085	-61.311283	381.432861	796.812317	-71.502289	409.661560	899.474426	-70.892189	374.059875	681.333374	-90.015564	298.324890	591.606262	-56.611355	258.952667	516.768433	-59.976929	210.725906	442.287262	-70.028069	303.435883	491.791443	-92.708969	143.357574	345.036377	-89.762489	189.542419	336.703033	-162.871490	105.689186	366.909790	-145.649094	225.016937	122.616425	-139.091095	147.305939	195.320892	-68.621063	379.619904	1017.968811	-451.314514	462.068451	984.959290	-455.172516	484.118256	1035.282471	-448.634644	537.549438	946.423584	-447.502136	653.128357	863.086853	-414.348541	530.456604	814.110596	-452.559967	469.581177	751.549377	-450.501312	408.038696	692.251892	-437.625610	510.876740	713.472229	-424.895447	310.328217	591.308899	-420.245483	335.351135	590.372437	-337.441467	244.130753	581.647217	-380.758667	477.263885	430.237640	-370.675049	378.795959	459.671844	-443.339874	-225.229828	893.053650	-255.570541	-13.224095	84.884995	-458.145020	-23.048618	81.367432	-58.062000	
